<svg width="32" height="32" viewBox="0 0 32 32" fill="none" xmlns="http://www.w3.org/2000/svg">
<path d="M5.41333 12.2533L2.66667 11L5.41333 9.74667L6.66667 7L7.92 9.74667L10.6667 11L7.92 12.2533L6.66667 15L5.41333 12.2533ZM6.66667 28.3333L7.92 25.5867L10.6667 24.3333L7.92 23.08L6.66667 20.3333L5.41333 23.08L2.66667 24.3333L5.41333 25.5867L6.66667 28.3333ZM1.82667 16.8267L0 17.6667L1.82667 18.5067L2.66667 20.3333L3.50667 18.5067L5.33333 17.6667L3.50667 16.8267L2.66667 15L1.82667 16.8267ZM12 16.3333C12 12.2133 13.84 8.41333 16.5867 5.66667H12V3H21.3333V12.3333H18.6667V7.37333C16.2667 9.69333 14.6667 12.9733 14.6667 16.3333C14.6667 20.76 17.4667 24.8133 21.3333 26.76V29.6667C15.88 27.5467 12 22.1333 12 16.3333Z" fill="#D0D925"/>
<g clip-path="url(#clip0_186_50)">
<path d="M24.9265 20.3165L21.826 18.3435C21.6841 18.2532 21.5674 18.1285 21.4865 17.9811C21.4055 17.8336 21.3631 17.6682 21.3631 17.5C21.3631 17.3318 21.4055 17.1664 21.4865 17.0189C21.5674 16.8715 21.6841 16.7468 21.826 16.6565L24.926 14.6835C25.247 14.4792 25.6195 14.3707 26 14.3707C26.3805 14.3707 26.753 14.4792 27.074 14.6835L30.174 16.6565C30.3159 16.7468 30.4326 16.8715 30.5135 17.0189C30.5945 17.1664 30.6369 17.3318 30.6369 17.5C30.6369 17.6682 30.5945 17.8336 30.5135 17.9811C30.4326 18.1285 30.3159 18.2532 30.174 18.3435L27.074 20.3165C26.753 20.5208 26.3805 20.6293 26 20.6293C25.6195 20.6293 25.2475 20.5208 24.9265 20.3165Z" stroke="#C1D649" stroke-width="2"/>
<path d="M29.143 19L30.1745 19.6565C30.3164 19.7468 30.4331 19.8715 30.514 20.0189C30.595 20.1664 30.6374 20.3318 30.6374 20.5C30.6374 20.6682 30.595 20.8336 30.514 20.9811C30.4331 21.1285 30.3164 21.2532 30.1745 21.3435L27.074 23.3165C26.753 23.5208 26.3805 23.6293 26 23.6293C25.6195 23.6293 25.247 23.5208 24.926 23.3165L21.826 21.3435C21.6841 21.2532 21.5674 21.1285 21.4865 20.9811C21.4055 20.8336 21.3631 20.6682 21.3631 20.5C21.3631 20.3318 21.4055 20.1664 21.4865 20.0189C21.5674 19.8715 21.6841 19.7468 21.826 19.6565L22.857 19" stroke="#C1D649" stroke-width="2"/>
<path d="M25.624 17.876L24.8 17.5L25.624 17.124L26 16.3L26.376 17.124L27.2 17.5L26.376 17.876L26 18.7L25.624 17.876Z" fill="#C6B838"/>
</g>
<defs>
<clipPath id="clip0_186_50">
<rect width="12" height="12" fill="white" transform="translate(20 13)"/>
</clipPath>
</defs>
</svg>
